Coordinates
version=1
nRows=13
nColumns=40
inDegrees=yes

Units are S.I. units (second, meters, Newtons, ...)
Angles are in degrees.

endheader
time	pelvis_tilt	pelvis_list	pelvis_rotation	pelvis_tx	pelvis_ty	pelvis_tz	hip_flexion_r	hip_adduction_r	hip_rotation_r	knee_angle_r	knee_angle_r_beta	ankle_angle_r	subtalar_angle_r	mtp_angle_r	hip_flexion_l	hip_adduction_l	hip_rotation_l	knee_angle_l	knee_angle_l_beta	ankle_angle_l	subtalar_angle_l	mtp_angle_l	lumbar_extension	lumbar_bending	lumbar_rotation	arm_flex_r	arm_add_r	arm_rot_r	elbow_flex_r	pro_sup_r	wrist_flex_r	wrist_dev_r	arm_flex_l	arm_add_l	arm_rot_l	elbow_flex_l	pro_sup_l	wrist_flex_l	wrist_dev_l
      3.80000000	    -18.71814860	      2.03747862	      1.07820014	      0.92791674	      1.00688074	     -0.36609196	     10.16303874	      1.49713943	     -3.20385784	     27.64479972	     27.64479972	      4.36018630	      0.00000000	      0.00000000	     58.89584447	      3.19713518	      1.41197013	     93.39080201	     93.39080201	     -1.42291704	      0.00000000	      0.00000000	      4.90910753	     -0.00241870	     13.29451501	    -17.34680674	    -23.69113764	     -3.76237802	    117.50743398	     57.90363530	      0.00000000	      0.00000000	    -43.40239523	    -21.65068932	     -0.21445106	    109.43860051	     56.90634896	      0.00000000	      0.00000000
      3.81000000	    -18.79041347	      2.62419150	      1.92117954	      0.93075170	      1.01443712	     -0.36603124	      6.39778781	      0.79356622	     -4.30298509	     23.95989331	     23.95989331	     -1.33294028	      0.00000000	      0.00000000	     59.53201736	      3.73655275	      0.07859916	     88.34475063	     88.34475063	     -0.75000982	      0.00000000	      0.00000000	      5.33036862	     -1.10905436	     12.92960027	    -17.18818357	    -22.86897218	     -3.52920763	    119.99543656	     58.54632493	      0.00000000	      0.00000000	    -45.66319539	    -21.62838330	     -1.92204078	    111.78715414	     56.96806600	      0.00000000	      0.00000000
      3.82000000	    -18.79755417	      3.06012081	      3.08115384	      0.93365301	      1.02183165	     -0.36576351	      2.82323451	      0.34672515	     -6.09598133	     20.42033880	     20.42033880	     -7.52737927	      0.00000000	      0.00000000	     59.78723514	      4.35413580	     -1.07842145	     82.97837369	     82.97837369	     -0.11113764	      0.00000000	      0.00000000	      5.58955645	     -2.28453713	     12.15590762	    -17.03455331	    -22.29675603	     -3.02165329	    122.34159909	     59.35407776	      0.00000000	      0.00000000	    -47.74352792	    -21.46044262	     -3.58055783	    113.83253129	     57.05849473	      0.00000000	      0.00000000
      3.83000000	    -18.33844967	      3.06813624	      4.50461131	      0.93611657	      1.02935470	     -0.36625423	     -1.00695825	      0.54222064	     -8.39745532	     17.04885669	     17.04885669	    -13.73262534	      0.00000000	      0.00000000	     59.25955133	      5.15930027	     -1.71186353	     77.26871859	     77.26871859	      0.44586311	      0.00000000	      0.00000000	      5.18349767	     -2.80745922	     10.61079791	    -16.46976814	    -22.14061565	     -2.06959107	    124.27166460	     60.87899482	      0.00000000	      0.00000000	    -49.63497636	    -20.83948038	     -5.32024946	    115.59798141	     57.22900925	      0.00000000	      0.00000000
      3.84000000	    -18.78823657	      2.06254337	      4.92185873	      0.93707497	      1.03457759	     -0.36607686	     -2.23469326	      1.62622836	     -9.12612190	     17.00334407	     17.00334407	    -15.40667176	      0.00000000	      0.00000000	     59.67983065	      4.49404410	     -2.43709338	     71.62326228	     71.62326228	      0.84662350	      0.00000000	      0.00000000	      5.94976834	     -2.01695029	     10.57356224	    -16.83170034	    -22.29388331	     -2.01127301	    125.99674824	     61.02825608	      0.00000000	      0.00000000	    -51.05513411	    -20.75650337	     -5.74426211	    116.71857129	     57.25693511	      0.00000000	      0.00000000
      3.85000000	    -19.32604862	      1.24086161	      5.51222055	      0.93818283	      1.03890327	     -0.36676143	     -3.26093655	      2.47019540	    -10.05563709	     16.84404344	     16.84404344	    -18.38223906	      0.00000000	      0.00000000	     59.77026156	      4.33850923	     -3.20406618	     65.32962865	     65.32962865	      1.12655768	      0.00000000	      0.00000000	      6.78029439	     -1.28469812	     10.28583083	    -17.54076994	    -22.51403994	     -1.85236600	    128.14505057	     61.21279489	      0.00000000	      0.00000000	    -52.21504326	    -20.38273235	     -6.39308678	    118.19200556	     57.28475610	      0.00000000	      0.00000000
      3.86000000	    -19.78077092	      0.65320372	      6.35163089	      0.93934805	      1.04233303	     -0.36842551	     -4.25728073	      2.99165623	    -11.07534734	     16.86983550	     16.86983550	    -22.68760099	      0.00000000	      0.00000000	     59.45568838	      4.95000723	     -3.68493498	     58.73590846	     58.73590846	      0.94075909	      0.00000000	      0.00000000	      7.52980076	     -0.88927964	      9.84912606	    -18.44259569	    -22.73848021	     -1.58007278	    130.38105291	     61.45123633	      0.00000000	      0.00000000	    -52.98145348	    -19.77953655	     -7.29727382	    119.75827051	     57.30515688	      0.00000000	      0.00000000
      3.87000000	    -19.80625368	      1.64180527	      8.06766785	      0.94057332	      1.04638902	     -0.37124432	     -5.88971165	      1.92832911	    -13.51718052	     16.59899178	     16.59899178	    -29.70915367	      0.00000000	      0.00000000	     57.90942324	      7.91338218	     -3.46748961	     51.13633092	     51.13633092	     -1.62414972	      0.00000000	      0.00000000	      7.41004118	     -2.44774459	      8.50726171	    -18.84384184	    -22.42794767	     -0.91477772	    131.75574634	     62.19060441	      0.00000000	      0.00000000	    -53.24716793	    -19.20901022	     -9.00314843	    120.68689990	     57.30326933	      0.00000000	      0.00000000
      3.88000000	    -19.44034773	      0.93170940	      8.62426575	      0.94035716	      1.04858681	     -0.37226108	     -6.68567830	      2.82384322	    -12.54865958	     18.94624496	     18.94624496	    -30.83061627	      0.00000000	      0.00000000	     56.34388731	      8.33619213	     -3.32275893	     44.60995207	     44.60995207	     -2.49296398	      0.00000000	      0.00000000	      6.87068456	     -1.81878634	      7.95476146	    -19.24052061	    -22.98130693	     -0.53664964	    132.53289238	     62.58852573	      0.00000000	      0.00000000	    -53.44497158	    -18.42315395	     -9.72478149	    121.90655284	     57.33318833	      0.00000000	      0.00000000
      3.89000000	    -19.11375763	     -0.21225445	      9.68739574	      0.94161144	      1.04869769	     -0.37301606	     -7.47939642	      4.50013363	    -10.97142271	     21.31847280	     21.31847280	    -31.21670788	      0.00000000	      0.00000000	     55.54350377	      8.39838407	     -4.16142193	     40.51002440	     40.51002440	     -2.43348937	      0.00000000	      0.00000000	      6.80586432	     -0.82723112	      6.73124479	    -20.63336869	    -23.09050319	     -0.31781125	    132.62583176	     62.68391806	      0.00000000	      0.00000000	    -53.83472586	    -18.35439054	    -10.17568038	    122.65402790	     57.33964598	      0.00000000	      0.00000000
      3.90000000	    -18.58009855	     -0.16157823	      8.87277066	      0.93944541	      1.05089526	     -0.37256642	     -6.99040056	      4.56668052	     -6.92369137	     26.67012020	     26.67012020	    -30.10393154	      0.00000000	      0.00000000	     52.40416541	      9.10345243	     -1.24869023	     32.07420247	     32.07420247	     -3.54445003	      0.00000000	      0.00000000	      5.61896067	     -0.83926463	      7.38167431	    -20.08772635	    -23.77795675	     -0.08384364	    132.13379616	     62.95918067	      0.00000000	      0.00000000	    -52.72353899	    -16.93936209	    -10.84141530	    123.55315526	     57.33130186	      0.00000000	      0.00000000
      3.91000000	    -17.95586122	     -0.27388219	      8.82801541	      0.93915257	      1.05118725	     -0.37220441	     -6.74550496	      5.13734362	     -4.03789768	     31.96995490	     31.96995490	    -28.40907856	      0.00000000	      0.00000000	     50.04278316	      9.49891056	     -0.03503119	     26.61125280	     26.61125280	     -4.09084973	      0.00000000	      0.00000000	      4.74105363	     -0.73509777	      7.14629222	    -20.37340539	    -23.82327712	      0.18403724	    130.50177567	     63.18707346	      0.00000000	      0.00000000	    -52.01385164	    -16.39903477	    -11.30236956	    123.70055059	     57.30038119	      0.00000000	      0.00000000
      3.92000000	    -17.48862548	      0.09906787	      8.75674913	      0.93959282	      1.05045349	     -0.37142290	     -6.29734083	      5.14162271	     -2.12493192	     37.54952163	     37.54952163	    -26.50696197	      0.00000000	      0.00000000	     47.70921515	     10.05718021	      0.87352309	     21.81247077	     21.81247077	     -4.95580830	      0.00000000	      0.00000000	      3.99558205	     -1.41138462	      6.84403690	    -20.99858641	    -23.64372382	      0.53660798	    128.73774751	     63.56023475	      0.00000000	      0.00000000	    -51.34869414	    -15.85149186	    -11.71717891	    123.74661262	     57.27170400	      0.00000000	      0.00000000
